<svg xmlns="http://www.w3.org/2000/svg" xmlns:xlink="http://www.w3.org/1999/xlink" viewBox="0 0 439.66 141.73">
  <defs>
    <style>
      .cls-1 {
        fill: url(#linear-gradient);
      }
    </style>
    <linearGradient id="linear-gradient" x1="104.05" y1="186.87" x2="331.05" y2="-40.14" gradientUnits="userSpaceOnUse">
      <stop offset="0" stop-color="#fff" />
      <stop offset="0" stop-color="#ed1c24" />
      <stop offset="0.61" stop-color="#991616" />
      <stop offset="1" stop-color="#68120d" />
    </linearGradient>
  </defs>
  <g id="Layer_2" data-name="Layer 2">
    <g id="Layer_1-2" data-name="Layer 1">
      <path class="cls-1" d="M439.66,71.09c0-12.7-45.48-23.77-112.74-29.55L368.45,0H331.22L292.09,39.13h0l-24,24h0L251.67,79.56c-.25,0,.24,0,0,0L225.6,105.63V79.91h0V62.27h0v-25h0V0H199.27l-.42.45-38,38C68.06,42.46,0,55.55,0,71.09,0,83,39.74,93.4,99.85,99.44L58.23,141.06l.68.67H94.79l39.47-39.47c20.29,1.33,42.14,2.19,65,2.52v36.87l27.46.08h0l37.49-37.5C364.35,101.07,439.66,87.43,439.66,71.09ZM84.1,72.52q-5.62-.7-10.64-1.43,5-.72,10.64-1.43c15.28-1.92,32.22-3.49,50.21-4.68l-11.4,11.4C109.14,75.32,96.11,74,84.1,72.52Zm86.08-6.18,3.65-3.44h0l25.44-25.64V62.41h0V79.77c-14-.21-27.86-.62-41.27-1.24m197.56-6C336.1,75,314,76.84,290.36,78.09l13.23-13.23c18.65,1.21,36.19,2.82,52,4.8q5.63.7,10.64,1.43Q361.18,71.81,355.56,72.52Z" />
    </g>
  </g>
</svg>